<svg version="1.2" xmlns="http://www.w3.org/2000/svg" viewBox="0 0 572 690" width="572" height="690"><style>.a{fill:#ffb8b8}.b{fill:#2f2e41}.c{fill:#3f3d56}.d{fill:#e6e6e6}.e{fill:#fff}.f{fill:#ffc107}.g{fill:#f2f2f2}</style><path class="a" d="m4.1 329.6c2.1 3.5 4.9 6.5 8.3 8.8 3.4 2.3 7.3 3.8 11.3 4.4 4 0.7 8.2 0.4 12.1-0.7 3.9-1.1 7.6-3.1 10.7-5.8l86.2 49.5-3.2-51.6-81.4-39.1c-4.9-4.9-11.3-7.8-18.2-8.2-6.9-0.5-13.7 1.7-19.1 5.9-5.4 4.2-9.1 10.3-10.3 17.1-1.3 6.8 0 13.8 3.6 19.7z"/><path class="b" d="m253.8 527.7c-25.6 35.9-24.7 95.8-17.5 161.3h121l5.2-12.2 7 12.2h114c0 0-8.8-166.5-24.6-171.8-15.7-5.2-205.1 10.5-205.1 10.5z"/><path fill-rule="evenodd" class="a" d="m357.3 153.6c-34 0-61.4-27.4-61.4-61.4 0-33.9 27.4-61.3 61.4-61.3 33.9 0 61.3 27.4 61.3 61.3 0 34-27.4 61.4-61.3 61.4z"/><path class="c" d="m401.6 169.5l12 23 83 37-21.8 211.1-9.2 21.9 5 19-12 14c12 10.9 13.5 22.2 7 34l-38.2 8.8c0 0-212.5 18.9-194.6-14.1 19.5-35.9 24.5-142.2-18.7-199-36.7-48.2-8.5-110.7-8.5-110.7l87-26 32-19z"/><path class="b" d="m384.5 2.3q0.2-0.4 0.6-0.8 0.3-0.4 0.7-0.6 0.5-0.3 1-0.4 0.4-0.1 1-0.1c-28.1-1.7-57.7 1.6-81.2 17.1-5.7 3.7-11.1 8.2-17.3 10.9q-0.4 0.2-0.7 0.6-0.3 0.4-0.4 0.9 0 0.5 0.2 0.9 0.1 0.5 0.5 0.8l0.7 0.5q0.4 0.3 0.6 0.8 0.2 0.5 0.1 1-0.1 0.5-0.5 0.9-0.3 0.4-0.8 0.6-0.5 0.1-0.9 0.5-0.3 0.5-0.4 1-0.1 0.5 0.1 1 0.3 0.5 0.7 0.8l5.2 3.4q0.4 0.2 0.7 0.7 0.2 0.4 0.2 0.8 0 0.5-0.2 0.9-0.2 0.5-0.6 0.7-0.2 0.1-0.4 0.2-0.1 0.1-0.3 0.2-0.2 0.1-0.4 0.2-0.1 0-0.3 0.1-0.5 0.2-0.8 0.6-0.3 0.3-0.4 0.8-0.1 0.5 0.1 1 0.1 0.4 0.5 0.7 0.8 0.8 1.6 1.6 0.7 0.9 1.4 1.8 0.6 1 1.1 2 0.5 1 0.9 2c1.8 4.5 2.1 9.5 2.4 14.3 1.8-7 9.4-11.1 16.6-11.5 7.2-0.4 14.2 2 21.2 3.7q5.7 1.3 11.5 2.2 5.8 0.8 11.7 1 5.8 0.2 11.7-0.1 5.8-0.4 11.6-1.3c-5.2 10.5-0.8 23.1 3.7 34l14.4-6.2c19.8-11.2 6 36.2-1.4 42.7 15.1 5.2 54.8-53 42-75.1-6.6-11.5-1.9-26.4-14.9-37.3-6.4-6.7-19.2-3.7-25.7-9.3-2.6-2.2 1.3-8.1-2.2-9.4-1.1-0.4-14.7-2.2-14.9-1.8z"/><path class="c" d="m280.6 194.4c-11.3 50-40.2 166.8-69.5 191.2q-0.7 0.6-1.4 1.2-0.8 0.6-1.6 1.1-0.9 0.4-1.7 0.8-0.9 0.4-1.8 0.7c-103 25.1-136-38.9-136-38.9 0 0 27.6-13.4 28.3-39.7l55.7 17.2 48.5-109.2 7.1-6.6 0.1-0.1z"/><path class="a" d="m500.1 656.1c3-2.9 5.3-6.3 6.8-10.1 1.4-3.8 2-7.9 1.8-12-0.3-4.1-1.5-8.1-3.5-11.6-1.9-3.6-4.7-6.7-8-9.1l28.9-95.2-49.6 14.7-19.8 88.1c-3.7 5.8-5.1 12.8-3.9 19.6 1.1 6.8 4.7 13 10 17.3 5.4 4.3 12.1 6.5 19 6.2 6.9-0.3 13.4-3.1 18.3-7.9z"/><path class="c" d="m473.7 224.2l22.9 5.3c0 0 94.6 184 71.8 219.1-22.8 35.1-50.7 151.2-50.7 151.2 0 0-41.3-8.3-57.1-29.3l28.9-137.7-29.8-115.7z"/><path class="d" d="m39.6 497.5l0.8-296.4c0-3 0.6-5.9 1.8-8.7 1.1-2.7 2.8-5.2 4.9-7.3 2.1-2.1 4.6-3.8 7.3-4.9 2.8-1.1 5.7-1.7 8.7-1.7l223.8 0.6c3 0 5.9 0.6 8.7 1.8 2.7 1.1 5.2 2.8 7.3 4.9 2.1 2.1 3.8 4.6 4.9 7.4 1.1 2.7 1.7 5.6 1.7 8.6l-0.8 296.4c0 3-0.6 5.9-1.8 8.7-1.1 2.7-2.8 5.2-4.9 7.3-2.1 2.1-4.6 3.7-7.4 4.9-2.7 1.1-5.6 1.7-8.6 1.7l-223.9-0.7c-2.9 0-5.9-0.6-8.6-1.7-2.7-1.2-5.2-2.8-7.3-4.9-2.1-2.1-3.8-4.6-4.9-7.4-1.1-2.7-1.7-5.7-1.7-8.6z"/><path class="e" d="m57 408l0.5-190.6c0-2.7 0.6-5.5 1.7-8.1 1-2.5 2.6-4.9 4.6-6.8 2-2 4.3-3.5 6.9-4.6 2.5-1.1 5.3-1.6 8.1-1.6l192.3 0.5c2.8 0 5.6 0.6 8.1 1.7 2.6 1.1 4.9 2.6 6.9 4.6 2 2 3.5 4.3 4.6 6.9 1 2.5 1.6 5.3 1.6 8.1l-0.8 263.7c0 2.8-0.5 5.6-1.6 8.1-1.1 2.6-2.6 4.9-4.6 6.9-2 2-4.3 3.5-6.9 4.6-2.6 1-5.3 1.6-8.1 1.6l-119.2-0.4c-12.4 0-24.6-2.5-36.1-7.3-11.4-4.8-21.8-11.7-30.5-20.5-8.7-8.8-15.7-19.2-20.4-30.7-4.7-11.5-7.1-23.7-7.1-36.1z"/><path class="f" d="m249.1 280h-150c-2.4 0-4.7-0.9-6.4-2.6-1.6-1.7-2.6-4-2.6-6.4 0-2.4 1-4.7 2.6-6.4 1.7-1.6 4-2.6 6.4-2.6h150c2.4 0 4.7 1 6.4 2.6 1.7 1.7 2.6 4 2.6 6.4 0 2.4-0.9 4.7-2.6 6.4-1.7 1.7-4 2.6-6.4 2.6z"/><path class="f" d="m132.1 238.5h-33c-2.4 0-4.7-0.9-6.4-2.6-1.6-1.7-2.6-4-2.6-6.4 0-2.4 1-4.7 2.6-6.4 1.7-1.6 4-2.6 6.4-2.6h33c2.4 0 4.7 1 6.4 2.6 1.7 1.7 2.6 4 2.6 6.4 0 2.4-0.9 4.7-2.6 6.4-1.7 1.7-4 2.6-6.4 2.6z"/><path class="f" d="m249.1 321.5h-150c-2.4 0-4.7-0.9-6.4-2.6-1.6-1.7-2.6-4-2.6-6.4 0-2.4 1-4.7 2.6-6.4 1.7-1.6 4-2.6 6.4-2.6h150c2.4 0 4.7 1 6.4 2.6 1.7 1.7 2.6 4 2.6 6.4 0 2.4-0.9 4.7-2.6 6.4-1.7 1.7-4 2.6-6.4 2.6z"/><path class="f" d="m249.1 363h-150c-2.4 0-4.7-0.9-6.4-2.6-1.6-1.7-2.6-4-2.6-6.4 0-2.4 1-4.7 2.6-6.4 1.7-1.6 4-2.6 6.4-2.6h150c2.4 0 4.7 1 6.4 2.6 1.7 1.7 2.6 4 2.6 6.4 0 2.4-0.9 4.7-2.6 6.4-1.7 1.7-4 2.6-6.4 2.6z"/><path fill-rule="evenodd" class="f" d="m237 472.4c-19.8 0-35.8-16.1-35.8-35.9 0-19.8 16-35.8 35.8-35.8 19.8 0 35.8 16 35.8 35.8 0 19.8-16 35.9-35.8 35.9z"/><path class="e" d="m240.9 453.4q0.5 0 0.9-0.1 0.5-0.1 0.9-0.2 0.4-0.2 0.7-0.5 0.4-0.3 0.6-0.6l9.5-12.1c0.7-0.7 0.9-1.7 0.8-2.7-0.2-1-0.7-1.8-1.5-2.4-0.9-0.6-1.9-0.9-2.9-0.7-1 0.1-1.9 0.6-2.6 1.4l-6.2 7.9-16-22.8c-0.6-0.8-1.4-1.3-2.5-1.5-1-0.2-2 0-2.9 0.5-0.8 0.6-1.4 1.4-1.6 2.4-0.2 0.9 0 1.9 0.6 2.7l19 27.1q0.3 0.4 0.6 0.7 0.3 0.3 0.7 0.5 0.5 0.2 0.9 0.3 0.5 0.1 0.9 0.1 0.1 0 0.1 0z"/><path fill-rule="evenodd" class="g" d="m160.6 109.5c-9.4 0-17-7.6-17-17 0-9.4 7.6-17 17-17 9.4 0 17 7.6 17 17 0 9.4-7.6 17-17 17z"/><path fill-rule="evenodd" class="g" d="m98.6 598.5c-9.4 0-17-7.6-17-17 0-9.4 7.6-17 17-17 9.4 0 17 7.6 17 17 0 9.4-7.6 17-17 17z"/><path fill-rule="evenodd" class="g" d="m489.6 175.5c-9.4 0-17-7.6-17-17 0-9.4 7.6-17 17-17 9.4 0 17 7.6 17 17 0 9.4-7.6 17-17 17z"/></svg>